<svg width="110" height="110" viewBox="0 0 110 110" fill="none" xmlns="http://www.w3.org/2000/svg">
<rect x="110" y="110" width="110" height="110" rx="21" transform="rotate(-180 110 110)" fill="url(#paint0_linear_39_153)"/>
<path d="M54.9998 22C46.03 22 44.9121 22.0433 41.4017 22.1918C37.8769 22.3651 35.4927 22.9116 33.3889 23.7284C31.1871 24.5596 29.1931 25.861 27.5458 27.5419C25.8603 29.1853 24.5581 31.1805 23.7323 33.385C22.9155 35.4887 22.369 37.873 22.1957 41.3978C22.0369 44.9102 22.0039 46.0261 22.0039 54.9959C22.0039 63.9657 22.0472 65.0836 22.1957 68.5939C22.369 72.1084 22.9155 74.503 23.7323 76.6068C24.5635 78.8085 25.8649 80.8026 27.5458 82.4498C29.1892 84.1354 31.1844 85.4376 33.3889 86.2634C35.4927 87.0698 37.8872 87.6267 41.4017 87.7999C44.9142 87.9587 46.03 87.9918 54.9998 87.9918C63.9696 87.9918 65.0875 87.9484 68.5978 87.7999C72.1124 87.6267 74.5069 87.0677 76.6107 86.2634C78.8125 85.4321 80.8065 84.1307 82.4537 82.4498C84.1415 80.8082 85.444 78.8126 86.2673 76.6068C87.0737 74.503 87.6306 72.1084 87.8038 68.5939C87.9627 65.0815 87.9957 63.9657 87.9957 54.9959C87.9957 46.0261 87.9524 44.9082 87.8038 41.3978C87.6306 37.8833 87.0717 35.4764 86.2673 33.385C85.4361 31.1832 84.1346 29.1892 82.4537 27.5419C80.8121 25.8542 78.8165 24.5517 76.6107 23.7284C74.5069 22.9116 72.1124 22.3651 68.5978 22.1918C65.0854 22.033 63.9696 22 54.9998 22ZM54.9998 27.94C63.8087 27.94 64.8606 27.9833 68.3421 28.1318C71.5534 28.2824 73.3024 28.8186 74.4636 29.2724C75.8992 29.8023 77.1984 30.6457 78.2668 31.7412C79.3605 32.8051 80.2007 34.1014 80.7253 35.5341C81.1791 36.6953 81.7153 38.4443 81.8659 41.6556C82.0144 45.1371 82.0577 46.1911 82.0577 54.9979C82.0577 63.8048 82.0144 64.8587 81.8535 68.3403C81.6803 71.5516 81.144 73.3006 80.6923 74.4618C80.0674 76.0107 79.3703 77.0935 78.2194 78.265C77.1474 79.3536 75.8489 80.193 74.4162 80.7235C73.2694 81.1772 71.4957 81.7135 68.272 81.8641C64.7719 82.0126 63.7407 82.0559 54.909 82.0559C46.0774 82.0559 45.0482 82.0126 41.544 81.8517C38.3327 81.6784 36.561 81.1422 35.3998 80.6905C33.8323 80.0656 32.7578 79.3684 31.6069 78.2176C30.4457 77.0564 29.7073 75.9509 29.1381 74.4143C28.6761 73.2676 28.1481 71.4938 27.9769 68.2701C27.8593 64.8113 27.8037 63.7388 27.8037 54.9484C27.8037 46.1622 27.8593 45.0876 27.9769 41.5855C28.1481 38.3618 28.6761 36.5922 29.1381 35.4413C29.7073 33.8718 30.4478 32.7992 31.6069 31.6381C32.7557 30.4893 33.8323 29.7467 35.3998 29.1651C36.561 28.7134 38.2894 28.1772 41.5131 28.0163C45.0132 27.8905 46.0444 27.8451 54.8637 27.8451L54.9998 27.94ZM54.9998 38.0607C52.7751 38.0599 50.572 38.4975 48.5164 39.3485C46.4609 40.1995 44.5932 41.4472 43.0201 43.0203C41.4469 44.5934 40.1992 46.4611 39.3482 48.5166C38.4972 50.5722 38.0597 52.7753 38.0605 55C38.0597 57.2247 38.4972 59.4278 39.3482 61.4834C40.1992 63.5389 41.4469 65.4066 43.0201 66.9797C44.5932 68.5528 46.4609 69.8005 48.5164 70.6515C50.572 71.5025 52.7751 71.9401 54.9998 71.9393C57.2245 71.9401 59.4276 71.5025 61.4831 70.6515C63.5387 69.8005 65.4064 68.5528 66.9795 66.9797C68.5526 65.4066 69.8003 63.5389 70.6513 61.4834C71.5023 59.4278 71.9399 57.2247 71.9391 55C71.9399 52.7753 71.5023 50.5722 70.6513 48.5166C69.8003 46.4611 68.5526 44.5934 66.9795 43.0203C65.4064 41.4472 63.5387 40.1995 61.4831 39.3485C59.4276 38.4975 57.2245 38.0599 54.9998 38.0607ZM54.9998 65.9993C48.9195 65.9993 44.0005 61.0802 44.0005 55C44.0005 48.9198 48.9195 44.0007 54.9998 44.0007C61.08 44.0007 65.9991 48.9198 65.9991 55C65.9991 61.0802 61.08 65.9993 54.9998 65.9993ZM76.5818 37.3842C76.5807 38.4354 76.1623 39.4431 75.4187 40.186C74.675 40.929 73.6668 41.3463 72.6156 41.3463C72.0958 41.3463 71.5812 41.2439 71.101 41.045C70.6208 40.8461 70.1844 40.5545 69.8169 40.187C69.4494 39.8195 69.1578 39.3831 68.9589 38.903C68.76 38.4228 68.6577 37.9081 68.6577 37.3883C68.6577 36.8685 68.76 36.3539 68.9589 35.8737C69.1578 35.3935 69.4494 34.9572 69.8169 34.5896C70.1844 34.2221 70.6208 33.9306 71.101 33.7317C71.5812 33.5328 72.0958 33.4304 72.6156 33.4304C74.7957 33.4304 76.5818 35.2041 76.5818 37.3842Z" fill="white"/>
<defs>
<linearGradient id="paint0_linear_39_153" x1="165" y1="110" x2="165" y2="220" gradientUnits="userSpaceOnUse">
<stop stop-color="#D099FB"/>
<stop offset="1" stop-color="#FA49B3"/>
</linearGradient>
</defs>
</svg>
