<svg width="193" height="33" viewBox="0 0 193 33" fill="none" xmlns="http://www.w3.org/2000/svg">
<path d="M42 23.4104C42 29.1566 45.7799 32 50.6312 32C55.4528 32 59.5005 29.1566 59.5005 23.4104V11H54.4111V23.4401C54.4111 25.8984 53.1313 27.3202 50.7205 27.3202C48.3097 27.3202 47.0894 25.8984 47.0894 23.4401V11H42V23.4104Z" fill="white"/>
<path d="M61.9434 15.0578H67.4793V31.7927H72.5687V15.0578H78.1046V11H61.9434V15.0578Z" fill="white"/>
<path d="M92.177 25.4542C92.177 26.9351 91.1949 27.7052 89.4984 27.7052H85.7483V23.1142H89.4389C91.1353 23.1142 92.177 23.9732 92.177 25.4542ZM91.6711 17.2496C91.6711 18.6714 90.7484 19.4118 89.0817 19.4118H85.7483V15.0578H89.0817C90.7484 15.0578 91.6711 15.8279 91.6711 17.2496ZM97.326 26.1354C97.326 23.7659 95.7486 21.6333 93.308 21.1298C95.3319 20.5374 96.8498 18.9083 96.8498 16.3907C96.8498 13.103 94.32 11 90.0639 11H80.6588V31.7927H90.3913C94.7962 31.7927 97.326 29.5712 97.326 26.1354Z" fill="white"/>
<path d="M100.278 31.7927H105.367V11H100.278V31.7927Z" fill="white"/>
<path d="M116.883 11H109.056V31.7927H116.883C123.55 31.7927 127.836 27.5571 127.836 21.3963C127.836 15.2059 123.55 11 116.883 11ZM114.145 27.409V15.3244H116.556C120.395 15.3244 122.657 17.5755 122.657 21.3963C122.657 25.2172 120.395 27.409 116.556 27.409H114.145Z" fill="white"/>
<path d="M145.721 16.5957V31.7927H144.172V19.6572L138.727 31.7927H137.599L132.154 19.7012V31.7927H130.605V16.5957H132.243L138.152 29.7664L144.061 16.5957H145.721Z" fill="white"/>
<path d="M150.785 17.6529V23.4013H156.649V24.6787H150.785V30.5152H157.313V31.7927H149.235V16.3755H157.313V17.6529H150.785Z" fill="white"/>
<path d="M164.947 16.3975C166.659 16.3975 168.127 16.7059 169.351 17.3226C170.576 17.9392 171.513 18.8276 172.162 19.9875C172.811 21.1475 173.136 22.5277 173.136 24.1281C173.136 25.7139 172.811 27.0868 172.162 28.2467C171.513 29.392 170.576 30.273 169.351 30.8897C168.127 31.4917 166.659 31.7927 164.947 31.7927H160.366V16.3975H164.947ZM164.947 30.5152C167.101 30.5152 168.739 29.9573 169.86 28.8414C170.996 27.7108 171.564 26.1397 171.564 24.1281C171.564 22.1019 170.996 20.5235 169.86 19.3929C168.739 18.2476 167.101 17.6749 164.947 17.6749H161.915V30.5152H164.947Z" fill="white"/>
<path d="M177.541 16.3975V31.7927H175.992V16.3975H177.541Z" fill="white"/>
<path d="M190.012 28.1366H182.975L181.625 31.7927H179.987L185.63 16.5957H187.379L193 31.7927H191.362L190.012 28.1366ZM189.548 26.8592L186.493 18.5339L183.439 26.8592H189.548Z" fill="white"/>
<path d="M145.721 16.5957V31.7927H144.172V19.6571L138.727 31.7927H137.599L132.154 19.7012V31.7927H130.605V16.5957H132.243L138.152 29.7664L144.061 16.5957H145.721Z" fill="white"/>
<path d="M150.785 17.6529V23.4013H156.649V24.6787H150.785V30.5152H157.313V31.7927H149.235V16.3755H157.313V17.6529H150.785Z" fill="white"/>
<path d="M164.947 16.3975C166.659 16.3975 168.127 16.7059 169.351 17.3225C170.576 17.9392 171.513 18.8276 172.162 19.9875C172.811 21.1475 173.136 22.5277 173.136 24.1281C173.136 25.7139 172.811 27.0867 172.162 28.2467C171.513 29.392 170.576 30.273 169.351 30.8896C168.127 31.4917 166.659 31.7927 164.947 31.7927H160.366V16.3975H164.947ZM164.947 30.5152C167.101 30.5152 168.739 29.9573 169.86 28.8414C170.996 27.7108 171.564 26.1397 171.564 24.1281C171.564 22.1019 170.996 20.5234 169.86 19.3928C168.739 18.2476 167.101 17.6749 164.947 17.6749H161.915V30.5152H164.947Z" fill="white"/>
<path d="M177.541 16.3975V31.7927H175.992V16.3975H177.541Z" fill="white"/>
<path d="M190.012 28.1366H182.975L181.625 31.7927H179.987L185.63 16.5957H187.379L193 31.7927H191.362L190.012 28.1366ZM189.548 26.8592L186.493 18.5339L183.439 26.8592H189.548Z" fill="white"/>
<path d="M145.721 16.5957V31.7927H144.172V19.6571L138.727 31.7927H137.599L132.154 19.7012V31.7927H130.605V16.5957H132.243L138.152 29.7664L144.061 16.5957H145.721Z" fill="#2BDB75"/>
<path d="M150.784 17.6529V23.4013H156.649V24.6787H150.784V30.5152H157.313V31.7927H149.235V16.3755H157.313V17.6529H150.784Z" fill="#2BDB75"/>
<path d="M164.947 16.3975C166.658 16.3975 168.126 16.7059 169.351 17.3225C170.576 17.9392 171.513 18.8276 172.162 19.9875C172.811 21.1475 173.136 22.5277 173.136 24.1281C173.136 25.7139 172.811 27.0867 172.162 28.2467C171.513 29.392 170.576 30.273 169.351 30.8896C168.126 31.4917 166.658 31.7927 164.947 31.7927H160.366V16.3975H164.947ZM164.947 30.5152C167.101 30.5152 168.739 29.9573 169.86 28.8414C170.996 27.7108 171.564 26.1397 171.564 24.1281C171.564 22.1019 170.996 20.5234 169.86 19.3928C168.739 18.2476 167.101 17.6749 164.947 17.6749H161.915V30.5152H164.947Z" fill="#2BDB75"/>
<path d="M177.541 16.3975V31.7927H175.992V16.3975H177.541Z" fill="#2BDB75"/>
<path d="M190.012 28.1366H182.974L181.624 31.7927H179.987L185.63 16.5957H187.379L193 31.7927H191.362L190.012 28.1366ZM189.547 26.8592L186.493 18.5339L183.439 26.8592H189.547Z" fill="#2BDB75"/>
<path d="M145.721 16.5957V31.7927H144.172V19.6571L138.727 31.7927H137.599L132.154 19.7012V31.7927H130.605V16.5957H132.243L138.152 29.7664L144.061 16.5957H145.721Z" fill="#2BDB75"/>
<path d="M150.784 17.6529V23.4013H156.649V24.6787H150.784V30.5152H157.313V31.7927H149.235V16.3755H157.313V17.6529H150.784Z" fill="#2BDB75"/>
<path d="M164.947 16.3975C166.658 16.3975 168.126 16.7059 169.351 17.3225C170.576 17.9392 171.513 18.8276 172.162 19.9875C172.811 21.1475 173.136 22.5277 173.136 24.1281C173.136 25.7139 172.811 27.0867 172.162 28.2467C171.513 29.392 170.576 30.273 169.351 30.8896C168.126 31.4917 166.658 31.7927 164.947 31.7927H160.366V16.3975H164.947ZM164.947 30.5152C167.101 30.5152 168.739 29.9573 169.86 28.8414C170.996 27.7108 171.564 26.1397 171.564 24.1281C171.564 22.1019 170.996 20.5234 169.86 19.3928C168.739 18.2476 167.101 17.6749 164.947 17.6749H161.915V30.5152H164.947Z" fill="#2BDB75"/>
<path d="M177.541 16.3975V31.7927H175.992V16.3975H177.541Z" fill="#2BDB75"/>
<path d="M190.012 28.1366H182.974L181.624 31.7927H179.987L185.63 16.5957H187.379L193 31.7927H191.362L190.012 28.1366ZM189.547 26.8592L186.493 18.5339L183.439 26.8592H189.547Z" fill="#2BDB75"/>
<path d="M39.6892 24.2736C39.6892 23.3327 39.7527 22.3867 39.6783 21.4517C39.3426 17.22 38.0482 13.3316 35.4498 9.94371C32.8047 6.49557 29.3329 4.45286 25.0409 3.86482C22.6439 3.53625 20.2579 3.59652 17.931 4.33011C14.5292 5.40255 11.9527 7.56214 10.1438 10.6178C7.72858 14.698 6.87851 19.09 8.16274 23.712C9.42071 28.237 12.473 30.9868 17.0254 31.9946C18.6176 32.3467 20.2185 32.21 21.7895 31.7667C21.9143 31.7314 22.0398 31.7013 22.1653 31.669C22.174 31.6976 22.1835 31.7263 22.1923 31.755C21.5662 31.9674 20.9489 32.2092 20.3141 32.3886C11.1654 34.9782 1.84737 29.0794 0.232591 19.6523C-0.845145 13.3617 1.85467 6.79695 7.66218 3.23267C11.4266 0.92313 15.4946 -0.215468 19.8872 0.0337152C26.4105 0.403447 31.7336 3.21135 35.7045 8.43979C39.2164 13.064 40.516 18.3351 39.8184 24.1097C39.8118 24.1663 39.798 24.2214 39.7877 24.2773C39.7549 24.2758 39.7228 24.2751 39.6892 24.2736Z" fill="url(#paint0_linear_2_30)"/>
<path d="M40.5 20.9847C40.5 14.5285 35.6417 10 29.5306 10C23.45 10 18.5 14.5285 18.5 20.9847C18.5 27.4409 23.45 32 29.5306 32C35.6111 32 40.5 27.4409 40.5 20.9847ZM23.8472 20.9847C23.8472 17.1599 26.0472 14.7427 29.5306 14.7427C32.9528 14.7427 35.1833 17.1599 35.1833 20.9847C35.1833 24.7483 32.9528 27.2267 29.5306 27.2267C26.0472 27.2267 23.8472 24.7483 23.8472 20.9847Z" fill="white"/>
<defs>
<linearGradient id="paint0_linear_2_30" x1="20.203" y1="0.0337255" x2="20.203" y2="33.0337" gradientUnits="userSpaceOnUse">
<stop stop-color="#3AD2E7"/>
<stop offset="1" stop-color="#06A348"/>
</linearGradient>
</defs>
</svg>
