<svg width="59" height="59" viewBox="0 0 59 59" fill="none" xmlns="http://www.w3.org/2000/svg">
<rect x="59" y="59" width="59" height="59" rx="13" transform="rotate(-180 59 59)" fill="url(#paint0_linear_39_152)"/>
<path d="M29.7559 15.625C30.9831 15.625 35.144 15.9688 37.1081 20.3625C37.7649 21.841 37.6076 24.3539 37.4781 26.372L37.475 26.4444C37.4581 26.6695 37.4473 26.873 37.438 27.0765C37.5904 27.1577 37.762 27.196 37.9344 27.1875C38.306 27.1675 38.7515 27.0395 39.2156 26.816C39.3942 26.7275 39.5913 26.6831 39.7906 26.6865C40.0157 26.6865 40.2361 26.7219 40.4211 26.7975C40.9777 26.9825 41.3307 27.391 41.3307 27.8365C41.3508 28.3931 40.8482 28.8772 39.8276 29.2842C39.7181 29.3196 39.5671 29.3782 39.4021 29.4322C38.8425 29.6002 37.9884 29.8777 37.7479 30.4358C37.6369 30.7148 37.6724 31.0848 37.899 31.5103L37.9175 31.5304C37.9915 31.6984 39.8106 35.8393 43.8591 36.5084C44.0075 36.5323 44.1422 36.6096 44.2378 36.7256C44.3335 36.8417 44.3835 36.9886 44.3786 37.139C44.3786 37.2315 44.3586 37.3224 44.3231 37.418C44.0256 38.1225 42.746 38.6436 40.4227 38.992C40.3502 39.1046 40.2747 39.4576 40.2192 39.6997C40.1853 39.9217 40.1267 40.1452 40.0542 40.3842C39.9602 40.7202 39.7197 40.8852 39.3666 40.8852H39.3296C39.1049 40.8748 38.8815 40.8444 38.6621 40.7943C38.1434 40.6823 37.6141 40.6265 37.0834 40.6278C36.7134 40.6278 36.3434 40.6462 35.9549 40.7202C35.2103 40.8497 34.5613 41.2953 33.8182 41.8148C32.7591 42.5564 31.5535 43.412 29.7343 43.412C29.6603 43.412 29.5863 43.3935 29.5092 43.3935H29.3258C27.5051 43.3935 26.318 42.5564 25.2604 41.7963C24.5189 41.2752 23.8883 40.8312 23.1437 40.7002C22.7634 40.6434 22.3796 40.6125 21.9951 40.6077C21.3245 40.6077 20.8065 40.7187 20.418 40.7927C20.1559 40.8467 19.9339 40.8837 19.7474 40.8837C19.5848 40.896 19.4231 40.8507 19.2906 40.7557C19.1581 40.6607 19.0633 40.5221 19.0228 40.3641C18.9488 40.1267 18.9134 39.8816 18.8579 39.6611C18.7993 39.436 18.7268 39.0506 18.6528 38.955C16.274 38.6791 14.9944 38.158 14.6984 37.435C14.6576 37.3474 14.6345 37.2525 14.6306 37.1559C14.6247 37.0054 14.6744 36.8579 14.7702 36.7416C14.866 36.6253 15.0012 36.5483 15.1501 36.5254C19.197 35.8563 21.0162 31.7169 21.0917 31.5427L21.1118 31.5072C21.3353 31.0802 21.3893 30.7056 21.2598 30.4296C21.0193 29.8916 20.1636 29.6141 19.6102 29.4275C19.4629 29.3903 19.319 29.3408 19.1801 29.2795C17.808 28.74 17.6214 28.1264 17.697 27.7009C17.808 27.1089 18.531 26.7188 19.1446 26.7188C19.325 26.7188 19.4791 26.7543 19.6194 26.8113C20.139 27.0503 20.5984 27.1829 20.9884 27.1829C21.1883 27.1902 21.3865 27.145 21.5635 27.0518L21.5003 26.3458C21.3769 24.3308 21.2197 21.821 21.8811 20.3502C23.7866 15.978 27.9383 15.642 29.1639 15.642L29.6804 15.625H29.7559Z" fill="white"/>
<defs>
<linearGradient id="paint0_linear_39_152" x1="88.5" y1="59" x2="88.5" y2="118" gradientUnits="userSpaceOnUse">
<stop stop-color="#FFC914"/>
<stop offset="1" stop-color="#FEDB68"/>
</linearGradient>
</defs>
</svg>
