<svg width="97" height="97" viewBox="0 0 97 97" fill="none" xmlns="http://www.w3.org/2000/svg">
<rect x="97" y="97" width="97" height="97" rx="20" transform="rotate(-180 97 97)" fill="url(#paint0_linear_39_154)"/>
<path d="M49.7612 20.0481C52.8695 20 55.96 20.0285 59.0469 20C59.2339 23.6355 60.5414 27.3388 63.2025 29.9091C65.8584 32.5436 69.6151 33.7495 73.2702 34.1574V43.7209C69.8448 43.6087 66.4035 42.8962 63.2952 41.4213C61.9414 40.8086 60.6803 40.0195 59.4459 39.2126C59.4299 46.1523 59.4744 53.0832 59.4014 59.9944C59.2161 63.3147 58.1206 66.6189 56.1898 69.3549C53.0833 73.9095 47.6914 76.8789 42.1535 76.9715C38.7567 77.1657 35.3634 76.2394 32.4689 74.533C27.672 71.7043 24.2965 66.5263 23.8049 60.9688C23.7429 59.7918 23.7334 58.6126 23.7764 57.4348C24.2039 52.9157 26.4393 48.5926 29.9092 45.6518C33.8422 42.2264 39.3516 40.5948 44.5101 41.5603C44.5582 45.0782 44.4175 48.5926 44.4175 52.1106C42.0609 51.3482 39.3071 51.562 37.248 52.9923C35.7415 53.9848 34.603 55.4449 34.0079 57.148C33.5162 58.3521 33.657 59.6898 33.6855 60.9688C34.2501 64.8661 37.9979 68.1418 41.9986 67.7874C44.6508 67.7589 47.1927 66.2199 48.5749 63.9666C49.022 63.1775 49.5226 62.3706 49.5493 61.4426C49.7826 57.1943 49.69 52.9638 49.7185 48.7155C49.7381 39.1413 49.69 29.5938 49.763 20.0499L49.7612 20.0481Z" fill="white"/>
<defs>
<linearGradient id="paint0_linear_39_154" x1="145.5" y1="97" x2="145.5" y2="194" gradientUnits="userSpaceOnUse">
<stop stop-color="#707070"/>
<stop offset="1" stop-color="#2B2B2B"/>
</linearGradient>
</defs>
</svg>
