<svg width="59" height="59" viewBox="0 0 59 59" fill="none" xmlns="http://www.w3.org/2000/svg">
<rect width="59" height="59" rx="13" fill="url(#paint0_linear_39_150)"/>
<path d="M44.625 20.9402C43.5492 21.4043 42.3785 21.7383 41.1726 21.8684C42.4246 21.1246 43.3621 19.9495 43.8093 18.5637C42.6345 19.2626 41.3475 19.7526 40.0054 20.0121C39.4445 19.4125 38.7661 18.9347 38.0124 18.6087C37.2588 18.2827 36.4461 18.1154 35.625 18.1172C32.3027 18.1172 29.6308 20.8102 29.6308 24.1149C29.6308 24.5789 29.6871 25.043 29.7785 25.4895C24.8039 25.2293 20.3672 22.8527 17.4176 19.2141C16.8801 20.1321 16.5985 21.1773 16.6019 22.241C16.6019 24.3223 17.6601 26.1574 19.2738 27.2367C18.3228 27.1993 17.3941 26.9379 16.5633 26.4738V26.5477C16.5633 29.4621 18.6234 31.8774 21.3691 32.4328C20.8536 32.5667 20.3232 32.6352 19.7906 32.6367C19.4004 32.6367 19.0312 32.5981 18.6586 32.5453C19.4179 34.9219 21.6293 36.6481 24.2625 36.7043C22.2023 38.318 19.6219 39.2672 16.8199 39.2672C16.3172 39.2672 15.8531 39.2496 15.3715 39.1934C18.0293 40.8985 21.1828 41.8828 24.5789 41.8828C35.6039 41.8828 41.6367 32.7492 41.6367 24.8215C41.6367 24.5613 41.6367 24.3012 41.6191 24.041C42.7863 23.1867 43.8093 22.1285 44.625 20.9402Z" fill="white"/>
<defs>
<linearGradient id="paint0_linear_39_150" x1="29.5" y1="0" x2="29.5" y2="59" gradientUnits="userSpaceOnUse">
<stop stop-color="#8DE8FC"/>
<stop offset="1" stop-color="#42C1DD"/>
</linearGradient>
</defs>
</svg>
