<svg width="110" height="110" viewBox="0 0 110 110" fill="none" xmlns="http://www.w3.org/2000/svg">
<rect width="110" height="110" rx="21" fill="url(#paint0_linear_39_148)"/>
<path d="M86.8621 38.9762C86.4836 37.5663 85.7413 36.2806 84.7098 35.2477C83.6782 34.2148 82.3934 33.471 80.984 33.0906C75.7961 31.6953 55 31.6953 55 31.6953C55 31.6953 34.2039 31.6953 29.016 33.0832C27.606 33.4623 26.3206 34.2057 25.2888 35.2388C24.257 36.2719 23.5152 37.5583 23.1379 38.9688C21.75 44.1641 21.75 55 21.75 55C21.75 55 21.75 65.8359 23.1379 71.0238C23.9023 73.8887 26.1586 76.1449 29.016 76.9094C34.2039 78.3047 55 78.3047 55 78.3047C55 78.3047 75.7961 78.3047 80.984 76.9094C83.8488 76.1449 86.0977 73.8887 86.8621 71.0238C88.25 65.8359 88.25 55 88.25 55C88.25 55 88.25 44.1641 86.8621 38.9762ZM48.3945 64.9453V45.0547L65.6133 54.9258L48.3945 64.9453Z" fill="white"/>
<defs>
<linearGradient id="paint0_linear_39_148" x1="55" y1="0" x2="55" y2="110" gradientUnits="userSpaceOnUse">
<stop stop-color="#FF5757"/>
<stop offset="1" stop-color="#D62525"/>
</linearGradient>
</defs>
</svg>
